<?xml version="1.0" encoding="UTF-8"?>
<svg xmlns="http://www.w3.org/2000/svg" xmlns:xlink="http://www.w3.org/1999/xlink" width="100pt" height="100pt" viewBox="0 0 100 100" version="1.1">
<g id="surface9428678">
<path style=" stroke:none;fill-rule:nonzero;fill:rgb(0%,0%,0%);fill-opacity:1;" d="M 50 90 C 27.910156 90 10 72.089844 10 50 C 10 27.910156 27.910156 10 50 10 C 72.089844 10 90 27.910156 90 50 C 90 72.089844 72.089844 90 50 90 Z M 50 90 "/>
<path style=" stroke:none;fill-rule:nonzero;fill:rgb(100%,100%,100%);fill-opacity:1;" d="M 48.921875 30.929688 C 41.054688 30.929688 33.664062 31.523438 29.730469 32.359375 C 27.109375 32.953125 24.84375 34.742188 24.367188 37.484375 C 23.894531 40.34375 23.414062 44.636719 23.414062 50 C 23.414062 55.363281 23.886719 59.535156 24.484375 62.515625 C 24.964844 65.136719 27.226562 67.046875 29.847656 67.640625 C 34.023438 68.476562 41.171875 69.070312 49.039062 69.070312 C 56.90625 69.070312 64.054688 68.476562 68.226562 67.640625 C 70.851562 67.046875 73.117188 65.257812 73.589844 62.515625 C 74.070312 59.535156 74.664062 55.246094 74.78125 49.882812 C 74.78125 44.519531 74.1875 40.226562 73.589844 37.246094 C 73.117188 34.625 70.851562 32.71875 68.226562 32.121094 C 64.054688 31.523438 56.785156 30.929688 48.921875 30.929688 Z M 48.921875 33.3125 C 57.503906 33.3125 64.414062 34.027344 67.75 34.621094 C 69.539062 35.101562 70.96875 36.292969 71.207031 37.84375 C 71.921875 41.65625 72.398438 45.710938 72.398438 49.882812 C 72.28125 55.003906 71.6875 59.175781 71.207031 62.15625 C 70.851562 64.417969 68.46875 65.136719 67.75 65.378906 C 63.457031 66.210938 56.308594 66.804688 49.15625 66.804688 C 42.003906 66.804688 34.738281 66.328125 30.566406 65.378906 C 28.777344 64.898438 27.347656 63.707031 27.109375 62.15625 C 26.15625 58.816406 25.796875 54.410156 25.796875 50 C 25.796875 44.515625 26.277344 40.464844 26.75 37.964844 C 27.109375 35.695312 29.609375 34.980469 30.207031 34.742188 C 34.140625 33.910156 41.414062 33.3125 48.921875 33.3125 Z M 42.484375 40.464844 L 42.484375 59.535156 L 59.171875 50 Z M 44.867188 44.519531 L 54.402344 50 L 44.867188 55.480469 Z M 44.867188 44.519531 "/>
</g>
</svg>
