<?xml version="1.0" encoding="UTF-8"?>
<svg xmlns="http://www.w3.org/2000/svg" xmlns:xlink="http://www.w3.org/1999/xlink" width="100pt" height="100pt" viewBox="0 0 100 100" version="1.1">
<g id="surface9601773">
<path style=" stroke:none;fill-rule:nonzero;fill:rgb(0%,0%,0%);fill-opacity:1;" d="M 50 90 C 27.910156 90 10 72.089844 10 50 C 10 27.910156 27.910156 10 50 10 C 72.089844 10 90 27.910156 90 50 C 90 72.089844 72.089844 90 50 90 Z M 50 90 "/>
<path style=" stroke:none;fill-rule:nonzero;fill:rgb(100%,100%,100%);fill-opacity:1;" d="M 36.503906 27.671875 C 31.488281 27.671875 27.402344 31.753906 27.402344 36.773438 L 27.402344 64.070312 C 27.402344 69.089844 31.488281 73.171875 36.503906 73.171875 L 63.804688 73.171875 C 68.820312 73.171875 72.902344 69.089844 72.902344 64.070312 L 72.902344 36.773438 C 72.902344 31.753906 68.820312 27.671875 63.804688 27.671875 Z M 36.503906 29.070312 L 63.804688 29.070312 C 68.050781 29.070312 71.503906 32.527344 71.503906 36.773438 L 71.503906 64.070312 C 71.503906 68.316406 68.050781 71.773438 63.804688 71.773438 L 36.503906 71.773438 C 32.257812 71.773438 28.804688 68.316406 28.804688 64.070312 L 28.804688 36.773438 C 28.804688 32.527344 32.257812 29.070312 36.503906 29.070312 Z M 38.488281 31.171875 C 34.304688 31.171875 30.902344 34.574219 30.902344 38.757812 L 30.902344 62.085938 C 30.902344 66.269531 34.304688 69.671875 38.488281 69.671875 L 61.816406 69.671875 C 66 69.671875 69.402344 66.269531 69.402344 62.085938 L 69.402344 49.023438 C 69.402344 48.828125 69.246094 48.671875 69.054688 48.671875 C 68.859375 48.671875 68.703125 48.828125 68.703125 49.023438 L 68.703125 62.085938 C 68.703125 65.882812 65.613281 68.972656 61.816406 68.972656 L 38.488281 68.972656 C 34.691406 68.972656 31.601562 65.882812 31.601562 62.085938 L 31.601562 38.757812 C 31.601562 34.960938 34.691406 31.871094 38.488281 31.871094 L 62.054688 31.871094 C 62.246094 31.871094 62.402344 31.714844 62.402344 31.523438 C 62.402344 31.328125 62.246094 31.171875 62.054688 31.171875 Z M 55.355469 36.308594 C 55.003906 36.300781 54.636719 36.3125 54.257812 36.335938 C 53.5 36.382812 52.691406 36.492188 51.851562 36.644531 C 48.488281 37.265625 44.621094 38.660156 41.542969 40.234375 C 41.460938 40.273438 41.375 40.316406 41.28125 40.382812 C 41.28125 40.382812 41.277344 40.386719 41.277344 40.386719 C 41.277344 40.386719 41.273438 40.386719 41.273438 40.386719 C 41.273438 40.390625 41.269531 40.390625 41.269531 40.390625 C 40.863281 40.679688 40.597656 41.15625 40.597656 41.691406 C 40.597656 42.574219 41.328125 43.292969 42.214844 43.292969 C 42.515625 43.292969 42.800781 43.210938 43.042969 43.066406 L 43.027344 43.074219 C 44.835938 42.121094 47.296875 40.996094 49.734375 40.179688 C 51.558594 39.570312 53.265625 39.261719 54.753906 39.1875 C 50.304688 41.4375 45.746094 44.792969 42.945312 47.878906 C 42.9375 47.886719 42.929688 47.894531 42.925781 47.902344 C 42.785156 48.085938 42.699219 48.316406 42.699219 48.566406 C 42.699219 49.171875 43.203125 49.667969 43.8125 49.667969 C 44 49.667969 44.183594 49.617188 44.339844 49.535156 L 44.324219 49.542969 C 45.804688 48.832031 47.886719 47.96875 49.863281 47.378906 C 51.230469 46.964844 52.433594 46.792969 53.433594 46.765625 C 49.777344 48.636719 46.761719 51.148438 44.582031 53.816406 C 44.492188 53.917969 44.433594 54.0625 44.433594 54.210938 C 44.433594 54.542969 44.710938 54.8125 45.035156 54.8125 C 45.183594 54.8125 45.324219 54.757812 45.429688 54.667969 C 45.429688 54.667969 45.433594 54.664062 45.4375 54.664062 C 48.1875 52.222656 53.074219 49.058594 56.882812 47.132812 C 56.886719 47.128906 56.894531 47.125 56.898438 47.121094 L 56.925781 47.109375 L 56.894531 47.125 C 57.1875 46.992188 57.398438 46.691406 57.398438 46.347656 C 57.398438 46.183594 57.347656 46.023438 57.265625 45.894531 L 57.261719 45.890625 C 56.949219 45.359375 56.359375 45.035156 55.636719 44.851562 C 54.910156 44.664062 54.027344 44.617188 53.046875 44.6875 C 51.777344 44.777344 50.34375 45.144531 48.90625 45.636719 C 51.851562 43.53125 55.808594 41.445312 58.753906 39.894531 C 58.761719 39.886719 58.773438 39.882812 58.78125 39.878906 C 58.789062 39.875 58.792969 39.871094 58.808594 39.863281 C 59.414062 39.519531 59.683594 38.742188 59.351562 38.101562 C 59.328125 38.058594 59.285156 37.976562 59.242188 37.90625 C 59.238281 37.90625 59.238281 37.90625 59.238281 37.902344 C 58.699219 37.003906 57.652344 36.546875 56.367188 36.382812 C 56.046875 36.339844 55.710938 36.316406 55.355469 36.308594 Z M 57.265625 45.894531 L 57.296875 45.953125 C 57.289062 45.933594 57.28125 45.917969 57.269531 45.902344 C 57.269531 45.898438 57.265625 45.898438 57.265625 45.894531 Z M 55.34375 37.011719 C 55.675781 37.019531 55.988281 37.039062 56.277344 37.078125 C 57.449219 37.226562 58.253906 37.621094 58.640625 38.265625 C 58.640625 38.269531 58.644531 38.269531 58.644531 38.273438 C 58.640625 38.265625 58.714844 38.398438 58.730469 38.425781 C 58.882812 38.722656 58.757812 39.085938 58.460938 39.253906 C 58.460938 39.257812 58.457031 39.257812 58.457031 39.257812 C 58.488281 39.238281 58.457031 39.257812 58.449219 39.261719 C 58.441406 39.265625 58.429688 39.273438 58.4375 39.265625 C 58.433594 39.269531 58.429688 39.269531 58.425781 39.273438 C 54.800781 41.183594 49.527344 43.890625 46.527344 46.582031 C 46.398438 46.699219 46.375 46.894531 46.472656 47.039062 C 46.570312 47.183594 46.761719 47.230469 46.917969 47.152344 C 48.976562 46.117188 51.25 45.515625 53.097656 45.382812 C 54.023438 45.316406 54.839844 45.371094 55.464844 45.527344 C 56.082031 45.6875 56.488281 45.949219 56.664062 46.253906 C 56.667969 46.261719 56.671875 46.269531 56.675781 46.273438 C 56.695312 46.300781 56.699219 46.3125 56.699219 46.347656 C 56.699219 46.410156 56.664062 46.457031 56.605469 46.484375 C 56.59375 46.488281 56.585938 46.496094 56.574219 46.5 L 56.546875 46.515625 C 53.105469 48.261719 49.03125 50.921875 46.144531 53.265625 C 48.417969 50.773438 51.292969 48.40625 54.917969 46.773438 C 55.050781 46.710938 55.132812 46.578125 55.121094 46.433594 C 55.113281 46.289062 55.015625 46.164062 54.878906 46.121094 C 53.597656 45.722656 51.683594 46.101562 49.660156 46.707031 C 47.636719 47.316406 45.535156 48.183594 44.023438 48.910156 C 44.015625 48.914062 44.011719 48.914062 44.007812 48.917969 C 43.949219 48.949219 43.882812 48.96875 43.808594 48.96875 C 43.578125 48.96875 43.398438 48.789062 43.398438 48.566406 C 43.398438 48.480469 43.429688 48.402344 43.476562 48.335938 C 46.480469 45.03125 51.6875 41.246094 56.441406 39.097656 C 56.582031 39.035156 56.664062 38.886719 56.640625 38.734375 C 56.621094 38.578125 56.5 38.457031 56.347656 38.433594 C 54.46875 38.144531 51.996094 38.683594 49.511719 39.515625 C 47.027344 40.347656 44.539062 41.488281 42.703125 42.457031 C 42.695312 42.460938 42.691406 42.460938 42.6875 42.464844 C 42.550781 42.546875 42.390625 42.59375 42.214844 42.59375 C 41.699219 42.59375 41.296875 42.191406 41.296875 41.691406 C 41.296875 41.390625 41.445312 41.125 41.675781 40.960938 C 41.722656 40.929688 41.773438 40.902344 41.863281 40.855469 C 44.878906 39.316406 48.707031 37.9375 51.976562 37.332031 C 53.203125 37.109375 54.351562 36.992188 55.34375 37.011719 Z M 69.054688 40.972656 C 68.859375 40.972656 68.703125 41.128906 68.703125 41.320312 L 68.703125 42.722656 C 68.703125 42.914062 68.859375 43.070312 69.054688 43.070312 C 69.246094 43.070312 69.402344 42.914062 69.402344 42.722656 L 69.402344 41.320312 C 69.402344 41.128906 69.246094 40.972656 69.054688 40.972656 Z M 69.054688 43.773438 C 68.859375 43.773438 68.703125 43.929688 68.703125 44.121094 L 68.703125 46.921875 C 68.703125 47.113281 68.859375 47.273438 69.054688 47.273438 C 69.246094 47.273438 69.402344 47.113281 69.402344 46.921875 L 69.402344 44.121094 C 69.402344 43.929688 69.246094 43.773438 69.054688 43.773438 Z M 52.75 53.691406 C 52.371094 53.671875 51.964844 53.710938 51.554688 53.863281 C 50.480469 54.25 50.007812 55.074219 49.636719 55.699219 C 49.449219 56.007812 49.28125 56.269531 49.097656 56.4375 C 48.914062 56.601562 48.726562 56.695312 48.386719 56.695312 C 47.984375 56.695312 47.621094 56.4375 47.15625 56.179688 C 46.925781 56.050781 46.664062 55.925781 46.359375 55.886719 C 46.050781 55.847656 45.707031 55.90625 45.359375 56.09375 C 45.277344 56.136719 45.21875 56.214844 45.191406 56.304688 C 45.167969 56.398438 45.179688 56.492188 45.226562 56.574219 L 49.398438 63.769531 C 49.460938 63.878906 49.578125 63.945312 49.707031 63.945312 C 49.832031 63.945312 49.949219 63.875 50.007812 63.761719 L 54.875 54.816406 L 54.816406 54.898438 C 54.816406 54.898438 54.769531 54.363281 54.765625 54.359375 C 54.761719 54.359375 54.761719 54.355469 54.757812 54.355469 C 54.753906 54.351562 54.75 54.347656 54.742188 54.34375 C 54.726562 54.335938 54.707031 54.324219 54.683594 54.308594 C 54.636719 54.28125 54.566406 54.238281 54.480469 54.195312 C 54.308594 54.101562 54.066406 53.988281 53.769531 53.890625 C 53.476562 53.792969 53.128906 53.710938 52.75 53.691406 Z M 52.71875 54.390625 C 53.019531 54.410156 53.300781 54.472656 53.550781 54.554688 C 53.773438 54.628906 53.953125 54.714844 54.09375 54.789062 L 49.691406 62.882812 L 46.0625 56.625 C 46.125 56.621094 46.207031 56.574219 46.265625 56.582031 C 46.4375 56.601562 46.617188 56.679688 46.816406 56.792969 C 47.222656 57.015625 47.707031 57.394531 48.386719 57.394531 C 48.875 57.394531 49.277344 57.214844 49.566406 56.957031 C 49.855469 56.695312 50.046875 56.375 50.234375 56.058594 C 50.613281 55.425781 50.949219 54.824219 51.792969 54.519531 C 52.101562 54.40625 52.417969 54.375 52.71875 54.390625 Z M 52.71875 54.390625 "/>
</g>
</svg>
